<svg width="685" height="193" viewBox="0 0 685 193" fill="none" xmlns="http://www.w3.org/2000/svg">
<path d="M149.115 85.6797C149.115 80.6966 150.067 76.0215 151.971 71.6543C153.874 67.2871 156.45 63.4798 159.697 60.2324C163.001 56.929 166.836 54.3255 171.203 52.4219C175.57 50.5182 180.245 49.5664 185.229 49.5664H240.49V73.6699H185.229C183.549 73.6699 181.981 73.9779 180.525 74.5938C179.07 75.2096 177.782 76.0775 176.662 77.1973C175.598 78.2611 174.758 79.5208 174.143 80.9766C173.527 82.4323 173.219 84 173.219 85.6797C173.219 87.3594 173.527 88.9551 174.143 90.4668C174.758 91.9225 175.598 93.2103 176.662 94.3301C177.782 95.3939 179.07 96.2337 180.525 96.8496C181.981 97.4655 183.549 97.7734 185.229 97.7734H209.332C214.315 97.7734 218.99 98.7253 223.357 100.629C227.781 102.477 231.616 105.052 234.863 108.355C238.167 111.603 240.742 115.438 242.59 119.861C244.493 124.229 245.445 128.904 245.445 133.887C245.445 138.87 244.493 143.545 242.59 147.912C240.742 152.279 238.167 156.115 234.863 159.418C231.616 162.665 227.781 165.241 223.357 167.145C218.99 169.048 214.315 170 209.332 170H155.834V145.896H209.332C211.012 145.896 212.579 145.589 214.035 144.973C215.491 144.357 216.751 143.517 217.814 142.453C218.934 141.333 219.802 140.046 220.418 138.59C221.034 137.134 221.342 135.566 221.342 133.887C221.342 132.207 221.034 130.639 220.418 129.184C219.802 127.728 218.934 126.468 217.814 125.404C216.751 124.285 215.491 123.417 214.035 122.801C212.579 122.185 211.012 121.877 209.332 121.877H185.229C180.245 121.877 175.57 120.925 171.203 119.021C166.836 117.118 163.001 114.542 159.697 111.295C156.45 107.992 153.874 104.156 151.971 99.7891C150.067 95.3659 149.115 90.6628 149.115 85.6797ZM302.471 170C296.928 170 291.721 168.964 286.85 166.893C281.979 164.765 277.695 161.882 274 158.242C270.361 154.547 267.477 150.264 265.35 145.393C263.278 140.521 262.242 135.314 262.242 129.771V103.064H251.072V80.2207H262.242V44.2754H285.086V80.2207H319.855V103.064H285.086V129.771C285.086 132.179 285.534 134.447 286.43 136.574C287.326 138.646 288.557 140.465 290.125 142.033C291.693 143.601 293.54 144.861 295.668 145.812C297.796 146.708 300.063 147.156 302.471 147.156H319.855V170H302.471ZM419.881 170H414.338L405.436 157.654C403.252 159.614 400.928 161.462 398.465 163.197C396.057 164.877 393.51 166.361 390.822 167.648C388.135 168.88 385.363 169.86 382.508 170.588C379.708 171.316 376.853 171.68 373.941 171.68C367.615 171.68 361.652 170.616 356.053 168.488C350.51 166.361 345.639 163.281 341.439 159.25C337.296 155.163 334.021 150.18 331.613 144.301C329.206 138.422 328.002 131.731 328.002 124.229C328.002 117.23 329.206 110.819 331.613 104.996C334.021 99.1172 337.296 94.0781 341.439 89.8789C345.639 85.6797 350.51 82.4323 356.053 80.1367C361.652 77.7852 367.615 76.6094 373.941 76.6094C376.853 76.6094 379.736 76.9733 382.592 77.7012C385.447 78.429 388.219 79.4368 390.906 80.7246C393.594 82.0124 396.141 83.5241 398.549 85.2598C401.012 86.9954 403.308 88.8711 405.436 90.8867L414.338 80.2207H419.881V170ZM396.785 124.229C396.785 121.093 396.169 118.07 394.938 115.158C393.762 112.191 392.138 109.587 390.066 107.348C387.995 105.052 385.559 103.232 382.76 101.889C380.016 100.489 377.077 99.7891 373.941 99.7891C370.806 99.7891 367.839 100.321 365.039 101.385C362.296 102.449 359.888 104.016 357.816 106.088C355.801 108.16 354.205 110.735 353.029 113.814C351.854 116.838 351.266 120.309 351.266 124.229C351.266 128.148 351.854 131.647 353.029 134.727C354.205 137.75 355.801 140.298 357.816 142.369C359.888 144.441 362.296 146.008 365.039 147.072C367.839 148.136 370.806 148.668 373.941 148.668C377.077 148.668 380.016 147.996 382.76 146.652C385.559 145.253 387.995 143.433 390.066 141.193C392.138 138.898 393.762 136.294 394.938 133.383C396.169 130.415 396.785 127.364 396.785 124.229ZM482.533 170C476.99 170 471.783 168.964 466.912 166.893C462.041 164.765 457.758 161.882 454.062 158.242C450.423 154.547 447.54 150.264 445.412 145.393C443.34 140.521 442.305 135.314 442.305 129.771V103.064H431.135V80.2207H442.305V44.2754H465.148V80.2207H499.918V103.064H465.148V129.771C465.148 132.179 465.596 134.447 466.492 136.574C467.388 138.646 468.62 140.465 470.188 142.033C471.755 143.601 473.603 144.861 475.73 145.812C477.858 146.708 480.126 147.156 482.533 147.156H499.918V170H482.533ZM539.895 55.6133C539.895 57.7409 539.475 59.7285 538.635 61.5762C537.851 63.4238 536.759 65.0475 535.359 66.4473C533.96 67.791 532.308 68.8828 530.404 69.7227C528.557 70.5065 526.569 70.8984 524.441 70.8984C522.314 70.8984 520.298 70.5065 518.395 69.7227C516.547 68.8828 514.923 67.791 513.523 66.4473C512.18 65.0475 511.088 63.4238 510.248 61.5762C509.464 59.7285 509.072 57.7409 509.072 55.6133C509.072 53.5417 509.464 51.582 510.248 49.7344C511.088 47.8307 512.18 46.207 513.523 44.8633C514.923 43.4635 516.547 42.3717 518.395 41.5879C520.298 40.748 522.314 40.3281 524.441 40.3281C526.569 40.3281 528.557 40.748 530.404 41.5879C532.308 42.3717 533.96 43.4635 535.359 44.8633C536.759 46.207 537.851 47.8307 538.635 49.7344C539.475 51.582 539.895 53.5417 539.895 55.6133ZM535.947 170H512.852V80.0527H535.947V170ZM632.109 97.9414L615.312 114.822C614.473 112.471 613.325 110.371 611.869 108.523C610.413 106.62 608.762 105.024 606.914 103.736C605.122 102.449 603.163 101.469 601.035 100.797C598.908 100.125 596.724 99.7891 594.484 99.7891C591.349 99.7891 588.382 100.433 585.582 101.721C582.839 103.008 580.431 104.828 578.359 107.18C576.344 109.475 574.748 112.219 573.572 115.41C572.396 118.602 571.809 122.129 571.809 125.992C571.809 129.128 572.396 132.067 573.572 134.811C574.748 137.554 576.344 139.962 578.359 142.033C580.431 144.105 582.839 145.729 585.582 146.904C588.382 148.08 591.349 148.668 594.484 148.668C596.724 148.668 598.88 148.36 600.951 147.744C603.023 147.128 604.954 146.26 606.746 145.141C608.594 143.965 610.217 142.565 611.617 140.941C613.073 139.262 614.249 137.414 615.145 135.398L631.941 152.279C629.814 155.303 627.35 158.018 624.551 160.426C621.807 162.833 618.812 164.877 615.564 166.557C612.373 168.236 608.986 169.496 605.402 170.336C601.875 171.232 598.236 171.68 594.484 171.68C588.158 171.68 582.195 170.504 576.596 168.152C571.053 165.745 566.182 162.469 561.982 158.326C557.839 154.183 554.564 149.34 552.156 143.797C549.749 138.254 548.545 132.319 548.545 125.992C548.545 119.105 549.749 112.667 552.156 106.676C554.564 100.685 557.839 95.4779 561.982 91.0547C566.182 86.5755 571.053 83.0482 576.596 80.4727C582.195 77.8971 588.158 76.6094 594.484 76.6094C598.236 76.6094 601.903 77.0853 605.486 78.0371C609.126 78.9889 612.569 80.3887 615.816 82.2363C619.12 84.028 622.143 86.2396 624.887 88.8711C627.686 91.5026 630.094 94.526 632.109 97.9414ZM671.582 161.434C671.582 163.449 671.218 165.353 670.49 167.145C669.762 168.88 668.755 170.392 667.467 171.68C666.179 172.967 664.667 173.975 662.932 174.703C661.196 175.487 659.32 175.879 657.305 175.879C655.345 175.879 653.469 175.487 651.678 174.703C649.942 173.975 648.402 172.967 647.059 171.68C645.771 170.392 644.735 168.88 643.951 167.145C643.223 165.353 642.859 163.449 642.859 161.434C642.859 159.474 643.223 157.626 643.951 155.891C644.735 154.155 645.771 152.643 647.059 151.355C648.402 150.068 649.942 149.06 651.678 148.332C653.469 147.548 655.345 147.156 657.305 147.156C659.32 147.156 661.196 147.548 662.932 148.332C664.667 149.06 666.179 150.068 667.467 151.355C668.755 152.643 669.762 154.155 670.49 155.891C671.218 157.626 671.582 159.474 671.582 161.434Z" fill="#151515"/>
<rect x="40.1545" y="180.76" width="163.691" height="19.4178" transform="rotate(-60 40.1545 180.76)" fill="#151515"/>
<rect x="0.154541" y="180.76" width="163.691" height="19.4178" transform="rotate(-60 0.154541 180.76)" fill="#151515"/>
</svg>
